<svg width="301" height="92" viewBox="0 0 301 92" fill="none" xmlns="http://www.w3.org/2000/svg">
<g clip-path="url(#clip0_594_3291)">
<path d="M82.4748 42.4198C77.1068 39.257 64.4326 32.8619 58.8441 29.792L57.0683 28.8577V26.8149C56.9871 24.2151 57.2714 1.98878 57.0045 0.0272973C70.7755 0.0272973 91.4001 0.0505102 105.02 0.0098877C98.1841 12.8582 89.2819 29.6353 82.4748 42.4198Z" fill="#4339DB"/>
<path d="M51.0462 30.4148L26.0111 45.4568L0.00112915 2.16479L51.0462 30.4148Z" fill="#4339DB"/>
<path d="M53.5816 27.8502L3.26199 0.000610352L53.7209 0.01802C53.6629 0.186313 53.6281 0.366213 53.6281 0.546112L53.5816 27.8444V27.8502Z" fill="#4339DB"/>
<path d="M53.8086 91.7267L27.7986 48.4347L52.8337 33.3928L53.8086 91.7267Z" fill="#4339DB"/>
<path d="M80.4031 45.1457C80.5656 45.227 80.7397 45.285 80.9138 45.314L57.2367 89.8711L56.2733 32.3671L80.3973 45.1457H80.4031Z" fill="#4339DB"/>
</g>
<path d="M114.516 25.2714H119.836C120.245 31.0521 123.878 34.4795 129.607 34.4795C135.541 34.4795 139.02 32.0242 139.02 27.7781C139.02 22.5599 134.006 21.7926 128.686 20.9743C122.496 20.0022 115.59 18.9282 115.59 10.9475C115.59 3.88794 120.757 0 129.504 0C137.689 0 142.856 4.86006 143.419 12.9941H138.15C137.843 7.57108 134.518 4.39948 129.3 4.39948C124.082 4.39948 121.013 6.65042 121.013 10.5893C121.013 15.0403 125.616 15.7561 130.681 16.5239C137.127 17.547 144.493 18.6724 144.493 27.3175C144.493 34.5819 138.917 38.879 129.504 38.879C120.705 38.879 115.13 33.8655 114.516 25.2714Z" fill="#4339DB"/>
<path d="M171.296 26.3458H152.164C152.368 31.7169 155.028 34.8885 159.274 34.8885C163.009 34.8885 165.618 32.8424 166.283 29.3641H171.296C170.427 35.3491 165.976 38.8789 159.274 38.8789C151.652 38.8789 147.201 33.9679 147.201 25.6295C147.201 17.2911 151.652 12.3801 159.274 12.3801C166.845 12.3801 171.296 17.2911 171.296 25.6295L171.296 26.3458ZM152.215 24.1968H166.231C165.822 19.2348 163.316 16.37 159.274 16.37C155.182 16.37 152.624 19.2348 152.215 24.1968Z" fill="#4339DB"/>
<path d="M174.058 25.6295C174.058 17.2911 178.765 12.3801 186.694 12.3801C193.14 12.3801 197.437 15.8075 198.613 21.6906H193.549C192.526 18.4166 190.172 16.5238 186.694 16.5238C181.987 16.5238 179.276 19.8998 179.276 25.6295C179.276 31.3588 181.987 34.7352 186.694 34.7352C190.326 34.7352 192.781 32.6891 193.651 29.0569H198.767C197.692 35.2982 193.344 38.8789 186.694 38.8789C178.765 38.8789 174.058 33.9679 174.058 25.6295Z" fill="#4339DB"/>
<path d="M219.484 12.8923H224.599V38.368H219.484V29.5181H219.382C219.382 35.4008 216.312 38.8796 211.094 38.8796C205.518 38.8796 202.244 35.0431 202.244 28.597V12.8923H207.36V28.4436C207.36 32.434 209.457 34.7359 213.038 34.7359C217.079 34.7359 219.484 31.7691 219.484 26.7557L219.484 12.8923Z" fill="#4339DB"/>
<path d="M247.565 13.1474L246.031 17.9046C245.059 17.3421 243.677 16.9839 242.348 16.9839C237.948 16.9839 235.39 20.4113 235.39 26.2435V38.3674H230.275V12.8917H235.39V22.867H235.492C235.492 16.2681 238.511 12.3801 243.626 12.3801C245.059 12.3801 246.542 12.6868 247.565 13.1474Z" fill="#4339DB"/>
<path d="M249.815 7.57111V1.79089H254.93V7.57111H249.815ZM249.815 38.3675V12.8917H254.93V38.3675H249.815Z" fill="#4339DB"/>
<path d="M267.049 16.6259V30.4885C267.049 33.1995 268.686 34.7341 271.5 34.7341C272.728 34.7341 274.057 34.4272 275.08 33.9157V37.8033C273.648 38.4683 271.705 38.8776 269.863 38.8776C264.901 38.8776 261.934 35.9618 261.934 31V16.6259H257.995V12.8917H262.292V4.19568H267.407V12.8917H275.439V16.6259H267.049Z" fill="#4339DB"/>
<path d="M295.495 12.8923H300.968L289.816 50.1338H284.342L287.872 38.368H283.626L275.953 12.8923H281.478L288.435 38.0099H288.537L295.495 12.8923Z" fill="#4339DB"/>
<path d="M143.266 89.5207L140.299 80.0054H122.956L119.99 89.5207H114.516L127.1 51.6648H136.564L149.047 89.5207H143.266ZM124.287 75.7083H138.969L131.704 52.1763H131.602L124.287 75.7083Z" fill="#4339DB"/>
<path d="M152.06 89.5204V50.1299H157.176V89.5204H152.06Z" fill="#4339DB"/>
<path d="M163.367 89.5204V50.1299H168.482V89.5204H163.367Z" fill="#4339DB"/>
<path d="M174.67 58.7237V52.9435H179.786V58.7237H174.67ZM174.67 89.52V64.0443H179.786V89.52H174.67Z" fill="#4339DB"/>
<path d="M204.492 64.0458H209.607V89.5215H204.492V81.0298H204.39C204.39 86.6567 200.962 90.0331 195.13 90.0331C188.48 90.0331 184.541 85.1221 184.541 76.7837C184.541 68.4453 188.48 63.5343 195.13 63.5343C200.962 63.5343 204.39 66.9102 204.39 72.5376H204.492V64.0458ZM204.85 76.7837C204.85 71.2587 202.088 67.678 197.33 67.678C192.573 67.678 189.81 71.0539 189.81 76.7837C189.81 82.5129 192.573 85.8893 197.33 85.8893C202.088 85.8893 204.85 82.3086 204.85 76.7837Z" fill="#4339DB"/>
<path d="M238.714 73.8164V89.5215H233.599V73.9703C233.599 69.9799 231.399 67.678 227.664 67.678C223.47 67.678 220.963 70.6448 220.963 75.6582V89.5215H215.848V64.0458H220.963V72.8957H221.065C221.065 67.0126 224.237 63.5343 229.609 63.5343C235.338 63.5343 238.714 67.3708 238.714 73.8164Z" fill="#4339DB"/>
<path d="M243.213 76.7837C243.213 68.4453 247.92 63.5343 255.849 63.5343C262.295 63.5343 266.592 66.9617 267.768 72.8448H262.704C261.681 69.5708 259.327 67.678 255.849 67.678C251.142 67.678 248.431 71.0539 248.431 76.7837C248.431 82.513 251.142 85.8894 255.849 85.8894C259.481 85.8894 261.937 83.8432 262.806 80.2111H267.922C266.848 86.4524 262.499 90.0331 255.849 90.0331C247.92 90.0331 243.213 85.1221 243.213 76.7837Z" fill="#4339DB"/>
<path d="M294.828 77.5H275.695C275.9 82.8711 278.56 86.0427 282.806 86.0427C286.541 86.0427 289.15 83.9966 289.815 80.5183H294.828C293.958 86.5033 289.507 90.0331 282.806 90.0331C275.184 90.0331 270.733 85.1221 270.733 76.7837C270.733 68.4453 275.184 63.5343 282.806 63.5343C290.377 63.5343 294.828 68.4453 294.828 76.7837L294.828 77.5ZM275.746 75.351H289.763C289.354 70.389 286.847 67.5241 282.806 67.5241C278.714 67.5241 276.156 70.389 275.746 75.351Z" fill="#4339DB"/>
<defs>
<clipPath id="clip0_594_3291">
<rect width="105.021" height="91.7256" fill="white" transform="translate(0 0.00195312)"/>
</clipPath>
</defs>
</svg>
