<svg width="5742" height="1323" viewBox="0 0 5742 1323" fill="none" xmlns="http://www.w3.org/2000/svg">
<path d="M348.082 1105.61L656.16 938.902L964.237 1105.61V1120.28C677.232 1265.38 433.881 1170.96 348.082 1105.61Z" fill="#4339DB"/>
<path d="M426.769 1018.92L640.156 904.227V432.108H577.473L426.769 1018.92Z" fill="#4339DB"/>
<path d="M678.832 432.108V904.227L886.884 1018.92L742.848 432.108H678.832Z" fill="#4339DB"/>
<path fill-rule="evenodd" clip-rule="evenodd" d="M474.781 356.089L525.46 404.101H786.859L838.872 356.089V254.73H616.15H577.473H474.781V356.089ZM616.15 157.372H762.853V125.364L670.944 70.6838L662.828 65.8555L657.493 62.6817L652.159 65.7772L643.703 70.6838L549.466 125.364V157.372H577.473H616.15Z" fill="#4339DB"/>
<path d="M616.15 157.372H577.473V254.73H616.15V157.372Z" fill="#4339DB"/>
<path d="M737.514 157.372H698.837V254.73H737.514V157.372Z" fill="#4339DB"/>
<path d="M657.493 62.6817L662.828 65.8555V50.6787H652.159V65.7772L657.493 62.6817Z" fill="#4339DB"/>
<path d="M662.828 50.6787V65.8555L670.944 70.6838L662.828 50.6787Z" fill="#4339DB"/>
<path d="M652.159 65.7772V50.6787L643.703 70.6838L652.159 65.7772Z" fill="#4339DB"/>
<path d="M252.061 122.7L309.93 190.717L548.135 190.717V173.372L252.061 122.7Z" fill="#4339DB"/>
<path d="M548.135 210.722L309.93 210.722L252.061 277.406L548.135 228.976V210.722Z" fill="#4339DB"/>
<path d="M1060.26 122.7L1002.39 190.717L764.19 190.717V173.372L1060.26 122.7Z" fill="#4339DB"/>
<path d="M764.19 210.722L1002.39 207.452L1060.26 277.406L764.19 228.976V210.722Z" fill="#4339DB"/>
<circle cx="657.501" cy="29.3407" r="29.3407" fill="#4339DB"/>
<path d="M1615.12 538.837C1593.3 538.837 1573.96 535.961 1557.1 530.159C1540.24 524.357 1526.01 516.423 1514.45 506.357C1502.9 496.291 1494.02 484.44 1487.93 470.902C1481.83 457.365 1478.75 442.786 1478.75 427.265H1530.82C1530.82 435.199 1532.8 442.984 1536.77 450.571C1540.74 458.158 1546.34 464.803 1553.63 470.406C1560.92 476.01 1569.74 480.572 1580.16 484.043C1590.57 487.514 1602.22 489.25 1615.12 489.25C1643.53 489.25 1663.86 484.291 1676.11 474.373C1688.36 464.456 1694.46 452.059 1694.46 437.183C1694.46 411.397 1674.62 394.885 1634.95 387.595L1568.01 375.199C1540.59 370.24 1520.06 359.678 1506.52 343.463C1492.98 327.247 1486.19 307.264 1486.19 283.462C1486.19 269.23 1489.07 255.941 1494.87 243.544C1500.67 231.147 1508.85 220.387 1519.41 211.312C1529.98 202.238 1542.97 195.047 1558.34 189.742C1573.71 184.436 1590.97 181.808 1610.16 181.808C1631.98 181.808 1651.07 184.684 1667.43 190.485C1683.8 196.287 1697.43 204.221 1708.34 214.287C1719.25 224.354 1727.53 236.205 1733.14 249.742C1738.74 263.28 1741.57 277.858 1741.57 293.379H1689.5C1689.5 285.445 1687.66 277.66 1684.04 270.073C1680.42 262.486 1675.22 255.842 1668.42 250.238C1661.63 244.635 1653.4 240.073 1643.63 236.602C1633.86 233.131 1622.7 231.395 1610.16 231.395C1598.26 231.395 1587.84 232.833 1578.92 235.61C1569.99 238.436 1562.55 242.205 1556.6 247.015C1550.65 251.825 1546.09 257.329 1542.97 263.627C1539.84 269.924 1538.26 276.52 1538.26 283.462C1538.26 294.718 1542.22 304.437 1550.16 312.718C1558.09 320.999 1571.48 326.95 1590.32 330.57L1644.87 340.487C1679.93 346.785 1705.61 357.595 1721.98 372.967C1738.34 388.339 1746.52 409.761 1746.52 437.183C1746.52 451.414 1743.7 464.704 1738.09 477.101C1732.49 489.497 1724.21 500.258 1713.3 509.332C1702.39 518.407 1688.75 525.597 1672.39 530.903C1656.03 536.209 1636.94 538.837 1615.12 538.837Z" fill="#4339DB"/>
<path d="M1796.12 186.765H2024.22V236.352H1848.18V335.527H2014.3V385.114H1848.18V484.289H2024.22V533.877H1796.12V186.765Z" fill="#4339DB"/>
<path d="M2168.01 186.765H2247.35L2373.8 533.877H2316.78L2287.02 452.057H2128.34L2098.59 533.877H2041.57L2168.01 186.765ZM2269.67 404.949L2212.64 246.27H2202.73L2145.7 404.949H2269.67Z" fill="#4339DB"/>
<path d="M2401.08 186.765H2453.15V484.289H2621.74V533.877H2401.08V186.765Z" fill="#4339DB"/>
<path d="M2689.64 192.171H2746.67L2813.61 464.902H2823.53L2895.43 192.171H2959.89L3031.79 464.902H3041.71L3108.65 192.171H3165.68L3078.9 539.283H2999.56L2932.62 278.949H2922.7L2855.76 539.283H2776.42L2689.64 192.171Z" fill="#4339DB"/>
<path d="M3195.43 192.171H3245.02V316.139H3247.5C3252.46 310.536 3258.56 305.577 3265.85 301.263C3272.14 297.296 3279.63 293.825 3288.41 290.85C3297.18 287.875 3307.5 286.387 3319.4 286.387C3334.28 286.387 3347.81 288.767 3360.06 293.577C3372.31 298.387 3382.72 305.23 3391.3 314.156C3399.88 323.082 3406.57 333.991 3411.38 346.884C3416.19 359.776 3418.57 374.305 3418.57 390.521V539.283H3368.99V390.521C3368.99 382.587 3367.5 375 3364.52 367.71C3361.55 360.421 3357.43 354.074 3352.13 348.619C3346.82 343.165 3340.57 338.85 3333.28 335.726C3326 332.602 3318.06 331.016 3309.48 331.016C3300.21 331.016 3291.63 332.602 3283.7 335.726C3275.76 338.85 3268.97 343.165 3263.37 348.619C3257.76 354.074 3253.3 360.421 3249.98 367.71C3246.66 375 3245.02 382.587 3245.02 390.521V539.283H3195.43V192.171Z" fill="#4339DB"/>
<path d="M3468.16 192.171H3522.71V244.238H3468.16V192.171ZM3470.64 291.346H3520.23V539.283H3470.64V291.346Z" fill="#4339DB"/>
<path d="M3649.15 539.283C3631.65 539.283 3618.16 534.672 3608.74 525.399C3599.32 516.126 3594.61 503.432 3594.61 487.216V338.454H3554.94V291.346H3594.61V221.924H3644.19V291.346H3701.22V338.454H3644.19V479.778C3644.19 489.696 3649.15 494.655 3659.07 494.655H3701.22V539.283H3649.15Z" fill="#4339DB"/>
<path d="M3847.5 544.241C3829.65 544.241 3813.14 541.117 3797.91 534.82C3782.69 528.522 3769.55 519.795 3758.49 508.538C3747.43 497.282 3738.8 483.745 3732.7 467.877C3726.61 452.009 3723.53 434.504 3723.53 415.314C3723.53 396.124 3726.61 378.619 3732.7 362.751C3738.8 346.883 3747.43 333.346 3758.49 322.09C3769.55 310.833 3782.69 302.106 3797.91 295.808C3813.14 289.511 3829.65 286.387 3847.5 286.387C3864.36 286.387 3879.98 289.461 3894.36 295.56C3908.74 301.66 3921.29 310.189 3932.05 321.098C3942.81 332.007 3951.24 344.801 3957.34 359.528C3963.44 374.256 3966.51 390.372 3966.51 407.876C3966.51 411.496 3966.36 414.917 3966.01 418.041C3965.67 421.165 3965.52 423.744 3965.52 425.727C3964.87 428.405 3964.38 430.686 3964.03 432.67H3773.12C3775.75 453.843 3783.88 470.703 3797.42 483.249C3810.95 495.794 3827.66 502.092 3847.5 502.092C3862.38 502.092 3875.12 498.472 3885.68 491.183C3896.24 483.893 3903.38 475.959 3907 467.381H3959.07C3956.1 475.315 3951.63 483.844 3945.68 492.918C3939.73 501.993 3932.15 510.373 3922.87 517.96C3913.6 525.547 3902.79 531.844 3890.39 536.803C3878 541.762 3863.71 544.241 3847.5 544.241ZM3919.4 395.479C3916.77 375.644 3909.09 359.528 3896.34 347.131C3883.6 334.734 3867.33 328.536 3847.5 328.536C3826.33 328.536 3809.57 334.734 3797.17 347.131C3784.77 359.528 3776.74 375.644 3773.12 395.479H3919.4Z" fill="#4339DB"/>
<path d="M4011.14 192.171H4060.73V316.139H4063.21C4068.17 310.536 4074.27 305.577 4081.56 301.263C4087.85 297.296 4095.34 293.825 4104.12 290.85C4112.9 287.875 4123.21 286.387 4135.11 286.387C4149.99 286.387 4163.52 288.767 4175.77 293.577C4188.02 298.387 4198.43 305.23 4207.01 314.156C4215.59 323.082 4222.29 333.991 4227.1 346.884C4231.91 359.776 4234.29 374.305 4234.29 390.521V539.283H4184.7V390.521C4184.7 382.587 4183.21 375 4180.24 367.71C4177.26 360.421 4173.14 354.074 4167.84 348.619C4162.53 343.165 4156.28 338.85 4149 335.726C4141.71 332.602 4133.77 331.016 4125.19 331.016C4115.92 331.016 4107.34 332.602 4099.41 335.726C4091.47 338.85 4084.68 343.165 4079.08 348.619C4073.47 354.074 4069.01 360.421 4065.69 367.71C4062.37 375 4060.73 382.587 4060.73 390.521V539.283H4011.14V192.171Z" fill="#4339DB"/>
<path d="M4365.69 544.241C4352.15 544.241 4339.81 542.357 4328.75 538.539C4317.69 534.72 4308.27 529.464 4300.48 522.671C4292.7 515.877 4286.75 507.794 4282.63 498.373C4278.52 488.951 4276.43 478.637 4276.43 467.381C4276.43 442.587 4284.62 422.752 4300.98 407.876C4317.34 393 4343.03 385.562 4378.09 385.562H4440.07V380.603C4440.07 364.388 4435.46 351.693 4426.19 342.42C4416.91 333.148 4404.22 328.536 4388.01 328.536C4379.43 328.536 4371.99 329.627 4365.69 331.759C4359.39 333.891 4354.14 336.718 4349.82 340.189C4345.51 343.66 4342.29 347.478 4340.15 351.594C4338.02 355.71 4336.58 359.627 4335.94 363.247H4286.35C4287 352.685 4289.72 342.768 4294.53 333.495C4299.34 324.222 4306.09 316.139 4314.86 309.197C4323.64 302.255 4334.1 296.701 4346.35 292.585C4358.6 288.469 4372.48 286.387 4388.01 286.387C4420.39 286.387 4445.43 294.916 4463.13 311.924C4480.83 328.933 4489.66 351.842 4489.66 380.603V539.282H4447.51L4442.55 512.009H4440.07C4435.46 517.96 4429.51 523.266 4422.22 527.877C4415.92 532.489 4408.24 536.406 4399.16 539.53C4390.09 542.654 4378.93 544.241 4365.69 544.241ZM4370.65 502.092C4393.11 502.092 4410.32 496.241 4422.22 484.488C4434.12 472.736 4440.07 456.323 4440.07 435.149V425.231H4380.57C4361.72 425.231 4347.94 429.05 4339.16 436.637C4330.38 444.223 4326.02 453.645 4326.02 464.901C4326.02 476.158 4329.74 485.133 4337.18 491.927C4344.62 498.72 4355.77 502.092 4370.65 502.092Z" fill="#4339DB"/>
<path d="M4606.19 539.283C4588.68 539.283 4575.19 534.672 4565.77 525.399C4556.35 516.126 4551.64 503.432 4551.64 487.216V338.454H4511.97V291.346H4551.64V221.924H4601.23V291.346H4658.25V338.454H4601.23V479.778C4601.23 489.696 4606.19 494.655 4616.1 494.655H4658.25V539.283H4606.19Z" fill="#4339DB"/>
<path d="M4933.42 544.244C4911.6 544.244 4892.26 541.368 4875.4 535.566C4858.54 529.765 4844.31 521.831 4832.76 511.764C4821.2 501.698 4812.33 489.847 4806.23 476.309C4800.13 462.772 4797.05 448.193 4797.05 432.673H4849.12C4849.12 440.606 4851.1 448.392 4855.07 455.979C4859.04 463.565 4864.64 470.21 4871.93 475.814C4879.22 481.417 4888.05 485.979 4898.46 489.45C4908.87 492.921 4920.53 494.657 4933.42 494.657C4961.83 494.657 4982.16 489.698 4994.41 479.781C5006.66 469.863 5012.76 457.466 5012.76 442.59C5012.76 416.805 4992.92 400.292 4953.25 393.003L4886.31 380.606C4858.89 375.647 4838.36 365.085 4824.82 348.87C4811.28 332.655 4804.49 312.671 4804.49 288.869C4804.49 274.637 4807.37 261.348 4813.17 248.951C4818.97 236.554 4827.15 225.794 4837.71 216.719C4848.28 207.645 4861.27 200.455 4876.64 195.149C4892.01 189.843 4909.27 187.215 4928.46 187.215C4950.28 187.215 4969.37 190.091 4985.73 195.893C5002.1 201.694 5015.73 209.628 5026.64 219.695C5037.55 229.761 5045.83 241.612 5051.44 255.15C5057.04 268.687 5059.87 283.266 5059.87 298.787H5007.8C5007.8 290.853 5005.96 283.067 5002.34 275.48C4998.72 267.894 4993.52 261.249 4986.72 255.645C4979.93 250.042 4971.7 245.48 4961.93 242.009C4952.16 238.538 4941 236.802 4928.46 236.802C4916.56 236.802 4906.15 238.191 4897.22 241.017C4888.29 243.844 4880.86 247.612 4874.91 252.422C4868.95 257.232 4864.39 262.736 4861.27 269.034C4858.14 275.332 4856.56 281.927 4856.56 288.869C4856.56 300.125 4860.52 309.844 4868.46 318.126C4876.39 326.407 4889.78 332.357 4908.62 335.977L4963.17 345.895C4998.23 352.192 5023.92 363.002 5040.28 378.374C5056.64 393.746 5064.82 415.168 5064.82 442.59C5064.82 456.822 5062 470.111 5056.39 482.508C5050.79 494.905 5042.51 505.665 5031.6 514.74C5020.69 523.814 5007.06 531.004 4990.69 536.31C4974.33 541.616 4955.24 544.244 4933.42 544.244Z" fill="#4339DB"/>
<path d="M5188.79 544.241C5175.26 544.241 5162.91 542.357 5151.85 538.539C5140.79 534.72 5131.37 529.464 5123.59 522.671C5115.8 515.877 5109.85 507.794 5105.73 498.373C5101.62 488.951 5099.54 478.637 5099.54 467.381C5099.54 442.587 5107.72 422.752 5124.08 407.876C5140.44 393 5166.13 385.562 5201.19 385.562H5263.17V380.603C5263.17 364.388 5258.56 351.693 5249.29 342.42C5240.02 333.148 5227.32 328.536 5211.11 328.536C5202.53 328.536 5195.09 329.627 5188.79 331.759C5182.49 333.891 5177.24 336.718 5172.92 340.189C5168.61 343.66 5165.39 347.478 5163.26 351.594C5161.12 355.71 5159.68 359.627 5159.04 363.247H5109.45C5110.1 352.685 5112.82 342.768 5117.63 333.495C5122.44 324.222 5129.19 316.139 5137.97 309.197C5146.74 302.255 5157.21 296.701 5169.45 292.585C5181.7 288.469 5195.59 286.387 5211.11 286.387C5243.49 286.387 5268.53 294.916 5286.23 311.924C5303.93 328.933 5312.76 351.842 5312.76 380.603V539.282H5270.61L5265.65 512.009H5263.17C5258.56 517.96 5252.61 523.266 5245.32 527.877C5239.02 532.489 5231.34 536.406 5222.26 539.53C5213.19 542.654 5202.03 544.241 5188.79 544.241ZM5193.75 502.092C5216.21 502.092 5233.42 496.241 5245.32 484.488C5257.22 472.736 5263.17 456.323 5263.17 435.149V425.231H5203.67C5184.83 425.231 5171.04 429.05 5162.26 436.637C5153.49 444.223 5149.12 453.645 5149.12 464.901C5149.12 476.158 5152.84 485.133 5160.28 491.927C5167.72 498.72 5178.88 502.092 5193.75 502.092Z" fill="#4339DB"/>
<path d="M5384.67 338.452H5345V291.344H5384.67V246.715C5384.67 231.839 5389.62 219.442 5399.54 209.525C5409.46 199.607 5421.86 194.648 5436.73 194.648H5486.32V239.277H5449.13C5439.21 239.277 5434.25 244.236 5434.25 254.153V291.344H5486.32V338.452H5434.25V539.281H5384.67V338.452Z" fill="#4339DB"/>
<path d="M5622.69 544.241C5604.83 544.241 5588.32 541.117 5573.1 534.82C5557.87 528.522 5544.73 519.795 5533.68 508.538C5522.62 497.282 5513.99 483.745 5507.89 467.877C5501.79 452.009 5498.72 434.504 5498.72 415.314C5498.72 396.124 5501.79 378.619 5507.89 362.751C5513.99 346.883 5522.62 333.346 5533.68 322.09C5544.73 310.833 5557.87 302.106 5573.1 295.808C5588.32 289.511 5604.83 286.387 5622.69 286.387C5639.55 286.387 5655.17 289.461 5669.55 295.56C5683.93 301.66 5696.47 310.189 5707.23 321.098C5717.99 332.007 5726.42 344.801 5732.52 359.528C5738.62 374.256 5741.7 390.372 5741.7 407.876C5741.7 411.496 5741.55 414.917 5741.2 418.041C5740.85 421.165 5740.7 423.744 5740.7 425.727C5740.06 428.405 5739.56 430.686 5739.22 432.67H5548.3C5550.93 453.843 5559.06 470.703 5572.6 483.249C5586.14 495.794 5602.85 502.092 5622.69 502.092C5637.56 502.092 5650.31 498.472 5660.87 491.183C5671.43 483.893 5678.57 475.959 5682.19 467.381H5734.26C5731.28 475.315 5726.82 483.844 5720.87 492.918C5714.92 501.993 5707.33 510.373 5698.06 517.96C5688.79 525.547 5677.98 531.844 5665.58 536.803C5653.18 541.762 5638.9 544.241 5622.69 544.241ZM5694.59 395.479C5691.96 375.644 5684.27 359.528 5671.53 347.131C5658.79 334.734 5642.52 328.536 5622.69 328.536C5601.51 328.536 5584.75 334.734 5572.35 347.131C5559.96 359.528 5551.92 375.644 5548.3 395.479H5694.59Z" fill="#4339DB"/>
<path d="M1496.56 689.947H1548.63V836.23H1724.66V689.947H1776.73V1037.06H1724.66V885.818H1548.63V1037.06H1496.56V689.947Z" fill="#4339DB"/>
<path d="M1915.58 1042.02C1902.04 1042.02 1889.69 1040.13 1878.64 1036.31C1867.58 1032.5 1858.16 1027.24 1850.37 1020.45C1842.59 1013.65 1836.64 1005.57 1832.52 996.148C1828.4 986.727 1826.32 976.412 1826.32 965.156C1826.32 940.362 1834.5 920.527 1850.87 905.651C1867.23 890.775 1892.92 883.337 1927.98 883.337H1989.96V878.378C1989.96 862.163 1985.35 849.469 1976.08 840.196C1966.8 830.923 1954.11 826.311 1937.89 826.311C1929.32 826.311 1921.88 827.402 1915.58 829.535C1909.28 831.667 1904.03 834.493 1899.71 837.964C1895.4 841.436 1892.17 845.254 1890.04 849.37C1887.91 853.485 1886.47 857.403 1885.83 861.023H1836.24C1836.88 850.46 1839.61 840.543 1844.42 831.27C1849.23 821.997 1855.98 813.915 1864.75 806.972C1873.53 800.03 1883.99 794.476 1896.24 790.361C1908.49 786.245 1922.37 784.162 1937.89 784.162C1970.27 784.162 1995.32 792.691 2013.02 809.7C2030.72 826.708 2039.55 849.617 2039.55 878.378V1037.06H1997.4L1992.44 1009.78H1989.96C1985.35 1015.74 1979.4 1021.04 1972.11 1025.65C1965.81 1030.26 1958.13 1034.18 1949.05 1037.31C1939.98 1040.43 1928.82 1042.02 1915.58 1042.02ZM1920.54 999.867C1943 999.867 1960.21 994.016 1972.11 982.264C1984.01 970.512 1989.96 954.098 1989.96 932.924V923.007H1930.46C1911.61 923.007 1897.83 926.825 1889.05 934.412C1880.27 941.999 1875.91 951.42 1875.91 962.677C1875.91 973.933 1879.63 982.908 1887.07 989.702C1894.5 996.495 1905.66 999.867 1920.54 999.867Z" fill="#4339DB"/>
<path d="M2091.6 789.119H2133.75L2138.71 811.433H2141.19C2143.17 808.805 2145.31 806.227 2147.64 803.747C2149.97 801.268 2152.84 798.888 2156.32 796.557C2159.79 794.227 2164.15 792.441 2169.46 791.103C2174.76 789.764 2181.01 789.119 2188.3 789.119H2232.93V833.748H2193.26C2158.55 833.748 2141.19 850.955 2141.19 885.319V1037.06H2091.6V789.119Z" fill="#4339DB"/>
<path d="M2391.61 1042.02C2379.71 1042.02 2369.4 1040.68 2360.62 1038.05C2351.84 1035.42 2344.4 1032.2 2338.3 1028.38C2332.21 1024.56 2327.25 1020.7 2323.43 1016.73C2319.61 1012.76 2316.73 1009.64 2314.75 1007.31H2312.27L2307.31 1037.06H2262.68V689.947H2312.27V818.875H2314.75C2316.73 816.246 2319.61 813.023 2323.43 809.205C2327.25 805.387 2332.21 801.618 2338.3 797.8C2344.4 793.982 2351.84 790.758 2360.62 788.13C2369.4 785.502 2379.71 784.163 2391.61 784.163C2407.83 784.163 2422.85 787.139 2436.74 793.089C2450.62 799.04 2462.67 807.618 2472.93 818.875C2483.2 830.131 2491.18 843.668 2496.98 859.536C2502.79 875.404 2505.66 893.256 2505.66 913.091C2505.66 932.926 2502.79 950.777 2496.98 966.645C2491.18 982.513 2483.2 996.05 2472.93 1007.31C2462.67 1018.56 2450.62 1027.14 2436.74 1033.09C2422.85 1039.04 2407.83 1042.02 2391.61 1042.02ZM2384.17 997.389C2394.09 997.389 2403.41 995.406 2412.19 991.439C2420.97 987.472 2428.55 981.868 2435 974.579C2441.45 967.29 2446.55 958.463 2450.37 948.05C2454.19 937.636 2456.07 925.983 2456.07 913.091C2456.07 900.198 2454.19 888.545 2450.37 878.131C2446.55 867.718 2441.45 858.892 2435 851.602C2428.55 844.362 2420.97 838.71 2412.19 834.743C2403.41 830.776 2394.09 828.792 2384.17 828.792C2374.26 828.792 2364.93 830.776 2356.16 834.743C2347.38 838.71 2339.79 844.313 2333.35 851.602C2326.9 858.892 2321.79 867.718 2317.97 878.131C2314.16 888.545 2312.27 900.198 2312.27 913.091C2312.27 925.983 2314.16 937.636 2317.97 948.05C2321.79 958.463 2326.9 967.29 2333.35 974.579C2339.79 981.868 2347.38 987.472 2356.16 991.439C2364.93 995.406 2374.26 997.389 2384.17 997.389Z" fill="#4339DB"/>
<path d="M2659.39 1042.02C2641.54 1042.02 2625.02 1038.89 2609.8 1032.6C2594.58 1026.3 2581.44 1017.57 2570.38 1006.31C2559.32 995.057 2550.69 981.52 2544.59 965.652C2538.49 949.784 2535.42 932.28 2535.42 913.089C2535.42 893.899 2538.49 876.395 2544.59 860.527C2550.69 844.659 2559.32 831.121 2570.38 819.865C2581.44 808.609 2594.58 799.881 2609.8 793.584C2625.02 787.286 2641.54 784.162 2659.39 784.162C2677.24 784.162 2693.75 787.286 2708.97 793.584C2724.2 799.881 2737.34 808.609 2748.4 819.865C2759.45 831.121 2768.08 844.659 2774.18 860.527C2780.28 876.395 2783.36 893.899 2783.36 913.089C2783.36 932.28 2780.28 949.784 2774.18 965.652C2768.08 981.52 2759.45 995.057 2748.4 1006.31C2737.34 1017.57 2724.2 1026.3 2708.97 1032.6C2693.75 1038.89 2677.24 1042.02 2659.39 1042.02ZM2659.39 997.388C2669.95 997.388 2679.82 995.404 2688.89 991.437C2697.97 987.47 2705.85 981.867 2712.45 974.578C2719.04 967.288 2724.25 958.462 2728.07 948.048C2731.88 937.635 2733.77 925.982 2733.77 913.089C2733.77 900.197 2731.88 888.544 2728.07 878.13C2724.25 867.717 2719.04 858.89 2712.45 851.601C2705.85 844.361 2697.97 838.708 2688.89 834.741C2679.82 830.774 2669.95 828.791 2659.39 828.791C2648.82 828.791 2638.96 830.774 2629.88 834.741C2620.81 838.708 2612.92 844.312 2606.33 851.601C2599.73 858.89 2594.53 867.717 2590.71 878.13C2586.89 888.544 2585.01 900.197 2585.01 913.089C2585.01 925.982 2586.89 937.635 2590.71 948.048C2594.53 958.462 2599.73 967.288 2606.33 974.578C2612.92 981.867 2620.81 987.47 2629.88 991.437C2638.96 995.404 2648.82 997.388 2659.39 997.388Z" fill="#4339DB"/>
<path d="M2825.46 789.119H2867.6L2872.56 811.433H2875.04C2877.03 808.805 2879.16 806.227 2881.49 803.747C2883.82 801.268 2886.7 798.888 2890.17 796.557C2893.64 794.227 2898 792.441 2903.31 791.103C2908.61 789.764 2914.86 789.119 2922.15 789.119H2966.78V833.748H2927.11C2892.4 833.748 2875.04 850.955 2875.04 885.319V1037.06H2825.46V789.119Z" fill="#4339DB"/>
<path d="M3180 689.947H3259.34L3385.79 1037.06H3328.76L3299.01 955.24H3140.33L3110.58 1037.06H3053.55L3180 689.947ZM3281.65 908.132L3224.63 749.452H3214.71L3157.69 908.132H3281.65Z" fill="#4339DB"/>
<path d="M3517.2 1141.19C3496.72 1141.19 3479.36 1138.12 3465.13 1132.02C3450.9 1125.92 3439.35 1118.38 3430.42 1109.46C3421.5 1100.53 3414.9 1090.86 3410.59 1080.45C3406.27 1070.03 3403.79 1060.51 3403.15 1051.93H3452.74C3453.38 1057.54 3455.22 1062.99 3458.19 1068.3C3461.17 1073.6 3465.38 1078.36 3470.84 1082.68C3476.29 1086.99 3482.89 1090.36 3490.67 1092.84C3498.46 1095.32 3507.28 1096.56 3517.2 1096.56C3537.04 1096.56 3553.15 1090.51 3565.55 1078.46C3577.94 1066.41 3584.14 1050.94 3584.14 1032.1V992.429H3581.66C3578.69 995.404 3575.22 998.628 3571.25 1002.1C3567.28 1005.57 3562.32 1008.79 3556.37 1011.77C3550.42 1014.74 3543.33 1017.22 3535.05 1019.21C3526.77 1021.19 3516.7 1022.18 3504.8 1022.18C3489.28 1022.18 3474.9 1019.36 3461.66 1013.75C3448.42 1008.15 3436.97 1000.12 3427.2 989.702C3417.43 979.289 3409.74 966.743 3404.14 952.015C3398.54 937.338 3395.71 921.023 3395.71 903.172C3395.71 885.32 3398.54 869.056 3404.14 854.328C3409.74 839.601 3417.43 827.055 3427.2 816.642C3436.97 806.229 3448.42 798.195 3461.66 792.592C3474.9 786.989 3489.28 784.162 3504.8 784.162C3516.7 784.162 3527.02 785.402 3535.8 787.881C3544.57 790.361 3552.01 793.237 3558.11 796.559C3564.21 799.881 3569.17 803.352 3572.99 806.972C3576.8 810.592 3579.68 813.766 3581.66 816.394H3584.14L3589.1 789.121H3633.73V1032.1C3633.73 1048.31 3631.15 1063.09 3626.04 1076.48C3620.89 1089.87 3613.4 1101.37 3603.48 1110.94C3593.56 1120.51 3581.32 1127.95 3566.79 1133.26C3552.26 1138.56 3535.7 1141.19 3517.2 1141.19ZM3514.72 977.553C3524.64 977.553 3533.81 975.718 3542.24 972.098C3550.67 968.479 3558.01 963.421 3564.31 956.974C3570.61 950.528 3575.47 942.743 3578.94 933.668C3582.41 924.594 3584.14 914.428 3584.14 903.172C3584.14 891.916 3582.41 881.75 3578.94 872.676C3575.47 863.601 3570.61 855.816 3564.31 849.37C3558.01 842.923 3550.67 837.865 3542.24 834.245C3533.81 830.626 3524.64 828.791 3514.72 828.791C3504.8 828.791 3495.63 830.626 3487.2 834.245C3478.77 837.865 3471.43 842.923 3465.13 849.37C3458.84 855.816 3453.98 863.601 3450.51 872.676C3447.03 881.75 3445.3 891.916 3445.3 903.172C3445.3 914.428 3447.03 924.594 3450.51 933.668C3453.98 942.743 3458.84 950.528 3465.13 956.974C3471.43 963.421 3478.77 968.479 3487.2 972.098C3495.63 975.718 3504.8 977.553 3514.72 977.553Z" fill="#4339DB"/>
<path d="M3688.27 789.119H3730.42L3735.38 811.433H3737.86C3739.84 808.805 3741.97 806.227 3744.31 803.747C3746.64 801.268 3749.51 798.888 3752.98 796.557C3756.45 794.227 3760.82 792.441 3766.12 791.103C3771.43 789.764 3777.68 789.119 3784.97 789.119H3829.6V833.748H3789.93C3755.21 833.748 3737.86 850.955 3737.86 885.319V1037.06H3688.27V789.119Z" fill="#4339DB"/>
<path d="M3958.53 1042.02C3940.67 1042.02 3924.16 1038.89 3908.94 1032.6C3893.71 1026.3 3880.57 1017.57 3869.52 1006.32C3858.46 995.059 3849.83 981.522 3843.73 965.654C3837.63 949.786 3834.56 932.282 3834.56 913.091C3834.56 893.901 3837.63 876.397 3843.73 860.529C3849.83 844.661 3858.41 831.123 3869.52 819.867C3880.57 808.611 3893.71 799.883 3908.94 793.586C3924.16 787.288 3940.67 784.164 3958.53 784.164C3975.38 784.164 3991.01 787.238 4005.39 793.338C4019.77 799.437 4032.31 807.966 4043.07 818.875C4053.83 829.784 4062.26 842.578 4068.36 857.305C4074.46 872.033 4077.53 888.149 4077.53 905.653C4077.53 909.273 4077.39 912.695 4077.04 915.819C4076.69 918.943 4076.54 921.521 4076.54 923.505C4075.9 926.182 4075.4 928.463 4075.06 930.447H3884.14C3886.77 951.621 3894.9 968.48 3908.44 981.026C3921.98 993.572 3938.69 999.869 3958.53 999.869C3973.4 999.869 3986.15 996.249 3996.71 988.96C4007.27 981.671 4014.41 973.737 4018.03 965.158H4070.1C4067.12 973.092 4062.66 981.621 4056.71 990.696C4050.76 999.77 4043.17 1008.15 4033.9 1015.74C4024.63 1023.32 4013.82 1029.62 4001.42 1034.58C3989.02 1039.54 3974.74 1042.02 3958.53 1042.02ZM4030.43 893.256C4027.8 873.421 4020.11 857.305 4007.37 844.909C3994.62 832.512 3978.36 826.313 3958.53 826.313C3937.35 826.313 3920.59 832.512 3908.19 844.909C3895.8 857.305 3887.76 873.421 3884.14 893.256H4030.43Z" fill="#4339DB"/>
<path d="M4231.26 1042.02C4213.41 1042.02 4196.89 1038.89 4181.67 1032.6C4166.45 1026.3 4153.31 1017.57 4142.25 1006.32C4131.19 995.059 4122.56 981.522 4116.46 965.654C4110.36 949.786 4107.29 932.282 4107.29 913.091C4107.29 893.901 4110.36 876.397 4116.46 860.529C4122.56 844.661 4131.19 831.123 4142.25 819.867C4153.31 808.611 4166.45 799.883 4181.67 793.586C4196.89 787.288 4213.41 784.164 4231.26 784.164C4248.12 784.164 4263.74 787.238 4278.12 793.338C4292.5 799.437 4305.04 807.966 4315.8 818.875C4326.56 829.784 4334.99 842.578 4341.09 857.305C4347.19 872.033 4350.27 888.149 4350.27 905.653C4350.27 909.273 4350.12 912.695 4349.77 915.819C4349.42 918.943 4349.28 921.521 4349.28 923.505C4348.63 926.182 4348.14 928.463 4347.79 930.447H4156.88C4159.5 951.621 4167.64 968.48 4181.17 981.026C4194.71 993.572 4211.42 999.869 4231.26 999.869C4246.13 999.869 4258.88 996.249 4269.44 988.96C4280 981.671 4287.14 973.737 4290.76 965.158H4342.83C4339.85 973.092 4335.39 981.621 4329.44 990.696C4323.49 999.77 4315.9 1008.15 4306.63 1015.74C4297.36 1023.32 4286.55 1029.62 4274.15 1034.58C4261.75 1039.54 4247.47 1042.02 4231.26 1042.02ZM4303.16 893.256C4300.53 873.421 4292.85 857.305 4280.1 844.909C4267.36 832.512 4251.09 826.313 4231.26 826.313C4210.08 826.313 4193.32 832.512 4180.93 844.909C4168.53 857.305 4160.5 873.421 4156.88 893.256H4303.16Z" fill="#4339DB"/>
<path d="M4392.4 789.123H4437.03L4441.99 813.917H4444.47C4449.43 808.313 4455.23 803.354 4461.82 799.04C4467.78 795.073 4474.62 791.602 4482.4 788.627C4490.19 785.652 4499.02 784.164 4508.93 784.164C4521.48 784.164 4531.99 785.999 4540.42 789.619C4548.85 793.239 4555.69 797.255 4561 801.52C4567.3 806.478 4572.26 812.28 4575.88 818.875H4578.36C4583.66 812.28 4590.11 806.478 4597.69 801.52C4604.98 796.908 4613.66 792.842 4623.73 789.371C4633.79 785.9 4645.94 784.164 4660.17 784.164C4673.07 784.164 4684.97 786.544 4695.88 791.354C4706.79 796.164 4716.21 802.759 4724.14 811.189C4732.08 819.619 4738.27 829.685 4742.74 841.438C4747.2 853.19 4749.43 866.132 4749.43 880.364V1037.06H4699.84V880.86C4699.84 864.644 4695.28 851.95 4686.21 842.677C4677.13 833.404 4665.13 828.793 4650.26 828.793C4642.97 828.793 4636.03 830.132 4629.43 832.76C4622.84 835.388 4617.03 839.057 4612.07 843.669C4607.12 848.281 4603.15 853.735 4600.17 860.033C4597.2 866.33 4595.71 873.273 4595.71 880.86V1037.06H4546.12V880.86C4546.12 864.644 4541.56 851.95 4532.49 842.677C4523.41 833.404 4511.41 828.793 4496.54 828.793C4489.25 828.793 4482.3 830.132 4475.71 832.76C4469.11 835.388 4463.31 839.057 4458.35 843.669C4453.4 848.281 4449.43 853.735 4446.45 860.033C4443.48 866.33 4441.99 873.273 4441.99 880.86V1037.06H4392.4V789.123Z" fill="#4339DB"/>
<path d="M4913.09 1042.02C4895.23 1042.02 4878.72 1038.89 4863.5 1032.6C4848.27 1026.3 4835.13 1017.57 4824.08 1006.32C4813.02 995.059 4804.39 981.522 4798.29 965.654C4792.19 949.786 4789.12 932.282 4789.12 913.091C4789.12 893.901 4792.19 876.397 4798.29 860.529C4804.39 844.661 4812.97 831.123 4824.08 819.867C4835.13 808.611 4848.27 799.883 4863.5 793.586C4878.72 787.288 4895.23 784.164 4913.09 784.164C4929.95 784.164 4945.57 787.238 4959.95 793.338C4974.33 799.437 4986.87 807.966 4997.63 818.875C5008.39 829.784 5016.82 842.578 5022.92 857.305C5029.02 872.033 5032.1 888.149 5032.1 905.653C5032.1 909.273 5031.95 912.695 5031.6 915.819C5031.25 918.943 5031.1 921.521 5031.1 923.505C5030.46 926.182 5029.96 928.463 5029.62 930.447H4838.7C4841.33 951.621 4849.47 968.48 4863 981.026C4876.54 993.572 4893.25 999.869 4913.09 999.869C4927.96 999.869 4940.71 996.249 4951.27 988.96C4961.83 981.671 4968.97 973.737 4972.59 965.158H5024.66C5021.68 973.092 5017.22 981.621 5011.27 990.696C5005.32 999.77 4997.73 1008.15 4988.46 1015.74C4979.19 1023.32 4968.38 1029.62 4955.98 1034.58C4943.58 1039.54 4929.3 1042.02 4913.09 1042.02ZM4984.99 893.256C4982.36 873.421 4974.67 857.305 4961.93 844.909C4949.19 832.512 4932.92 826.313 4913.09 826.313C4891.91 826.313 4875.15 832.512 4862.75 844.909C4850.36 857.305 4842.32 873.421 4838.7 893.256H4984.99Z" fill="#4339DB"/>
<path d="M5074.24 789.123H5118.87L5123.83 813.917H5126.31C5131.27 808.313 5137.37 803.354 5144.65 799.04C5150.95 795.073 5158.44 791.602 5167.22 788.627C5175.99 785.652 5186.31 784.164 5198.21 784.164C5213.08 784.164 5226.62 786.544 5238.87 791.354C5251.07 796.164 5261.53 803.007 5270.11 811.933C5278.69 820.859 5285.38 831.768 5290.19 844.661C5295 857.553 5297.38 872.083 5297.38 888.298V1037.06H5247.8V888.298C5247.8 880.364 5246.31 872.777 5243.33 865.487C5240.36 858.198 5236.24 851.851 5230.94 846.396C5225.63 840.942 5219.38 836.628 5212.09 833.504C5204.8 830.38 5196.87 828.793 5188.29 828.793C5179.02 828.793 5170.44 830.38 5162.51 833.504C5154.57 836.628 5147.78 840.942 5142.18 846.396C5136.57 851.851 5132.06 858.198 5128.79 865.487C5125.46 872.777 5123.83 880.364 5123.83 888.298V1037.06H5074.24V789.123Z" fill="#4339DB"/>
<path d="M5413.91 1037.07C5396.41 1037.07 5382.92 1032.45 5373.5 1023.18C5364.07 1013.91 5359.36 1001.21 5359.36 985V836.237H5319.69V789.129H5359.36V719.707H5408.95V789.129H5465.98V836.237H5408.95V977.562C5408.95 987.479 5413.91 992.438 5423.83 992.438H5465.98V1037.07H5413.91Z" fill="#4339DB"/>
</svg>
