<svg width="1323" height="1323" viewBox="0 0 1323 1323" fill="none" xmlns="http://www.w3.org/2000/svg">
<path d="M348.082 1206.97L656.16 1040.26L964.237 1206.97V1221.64C677.232 1366.74 433.881 1272.32 348.082 1206.97Z" fill="#4339DB"/>
<path d="M426.769 1120.28L640.156 1005.58V533.465H577.473L426.769 1120.28Z" fill="#4339DB"/>
<path d="M678.832 533.465V1005.58L886.884 1120.28L742.848 533.465H678.832Z" fill="#4339DB"/>
<path fill-rule="evenodd" clip-rule="evenodd" d="M474.781 457.445L525.46 505.458H786.859L838.872 457.445V356.087H616.15H577.473H474.781V457.445ZM616.15 258.729H762.853V226.721L670.944 172.04L662.828 167.212L657.493 164.038L652.159 167.134L643.703 172.04L549.466 226.721V258.729H577.473H616.15Z" fill="#4339DB"/>
<path d="M616.15 258.729H577.473V356.087H616.15V258.729Z" fill="#4339DB"/>
<path d="M737.514 258.729H698.837V356.087H737.514V258.729Z" fill="#4339DB"/>
<path d="M657.493 164.038L662.828 167.212V152.035H652.159V167.134L657.493 164.038Z" fill="#4339DB"/>
<path d="M662.828 152.035V167.212L670.944 172.04L662.828 152.035Z" fill="#4339DB"/>
<path d="M652.159 167.134V152.035L643.703 172.04L652.159 167.134Z" fill="#4339DB"/>
<path d="M252.061 224.057L309.93 292.074L548.135 292.074V274.728L252.061 224.057Z" fill="#4339DB"/>
<path d="M548.135 312.079L309.93 312.079L252.061 378.762L548.135 330.333V312.079Z" fill="#4339DB"/>
<path d="M1060.26 224.057L1002.39 292.074L764.19 292.074V274.728L1060.26 224.057Z" fill="#4339DB"/>
<path d="M764.19 312.079L1002.39 308.808L1060.26 378.762L764.19 330.333V312.079Z" fill="#4339DB"/>
<circle cx="657.501" cy="130.697" r="29.3407" fill="#4339DB"/>
</svg>
